<svg width="16" height="13" viewBox="0 0 16 13" fill="none" xmlns="http://www.w3.org/2000/svg">
<path d="M4.91892 12.7088C10.5779 12.7088 13.674 8.01922 13.674 3.95369C13.674 3.82186 13.6711 3.68709 13.6652 3.55526C14.2675 3.11969 14.7873 2.58019 15.2001 1.96209C14.6391 2.21166 14.0436 2.37464 13.4338 2.44549C14.0759 2.0606 14.5567 1.45595 14.787 0.743635C14.1829 1.10163 13.5223 1.35416 12.8335 1.49041C12.3693 0.997256 11.7557 0.670728 11.0874 0.561312C10.4191 0.451896 9.73332 0.565687 9.13616 0.885091C8.53901 1.20449 8.0637 1.71172 7.78373 2.32835C7.50376 2.94498 7.43472 3.63666 7.58728 4.29647C6.36413 4.23509 5.16753 3.91735 4.07506 3.36384C2.98259 2.81034 2.01863 2.03343 1.24568 1.08348C0.852823 1.76081 0.732609 2.56231 0.909467 3.32509C1.08633 4.08787 1.54699 4.75468 2.19783 5.19002C1.70922 5.17451 1.23131 5.04296 0.803589 4.80623V4.84432C0.803151 5.55512 1.04888 6.24415 1.49902 6.79426C1.94915 7.34438 2.5759 7.72163 3.27273 7.8619C2.82011 7.98574 2.34506 8.00378 1.88435 7.91463C2.08098 8.52593 2.46356 9.06059 2.97868 9.44399C3.4938 9.82739 4.11577 10.0404 4.75779 10.0533C3.66784 10.9095 2.32143 11.3739 0.935425 11.3717C0.689628 11.3713 0.444073 11.3562 0.200073 11.3265C1.60811 12.2299 3.24603 12.7096 4.91892 12.7088Z" fill="#ECECEC"/>
</svg>
